<svg width="81.000000" height="80.000000" viewBox="0 0 81 80" fill="none" xmlns="http://www.w3.org/2000/svg" xmlns:xlink="http://www.w3.org/1999/xlink">
	<desc>
			Created with Pixso.
	</desc>
	<defs/>
	<rect id="Services" width="80.000000" height="80.000000" fill="#FFFFFF" fill-opacity="0"/>
	<g opacity="0.300000">
		<path id="Ellipse 6" d="M77.96 27.42C75.11 18.8 69.32 11.09 61 5.95C53.27 1.19 43.88 -1 34.2 0.43C25.22 1.74 16.62 6.09 10.12 13.41C4.08 20.19 0.3 29.05 0.02 38.83C-0.25 47.91 2.55 57.13 8.62 64.79C14.25 71.92 22.32 77.19 31.9 79.16C40.8 81 50.36 79.85 58.97 75.2C66.97 70.89 73.55 63.86 77.16 54.76C80.52 46.33 81.04 36.7 77.96 27.42ZM35.78 11.22C42.32 10.25 49.22 11.5 55.27 15.24C60.89 18.71 65.38 24.09 67.61 30.85C69.69 37.12 69.66 44.13 67.02 50.74C64.59 56.88 60.06 62.23 53.8 65.6C47.98 68.74 41.08 69.93 34.11 68.48C27.64 67.15 21.58 63.62 17.18 58.03C13.08 52.85 10.71 46.26 10.92 39.14C11.11 32.54 13.53 25.97 18.27 20.66C22.66 15.72 28.74 12.24 35.78 11.22Z" fill="#2F2E30" fill-opacity="1.000000" fill-rule="evenodd"/>
	</g>
	<circle id="Ellipse 5" cx="40.000000" cy="40.000000" r="29.000000" fill="#000000" fill-opacity="1.000000"/>
	<rect id="Icon-secure" width="40.000000" height="40.000000" transform="translate(20.000000 20.000000)" fill="#FFFFFF" fill-opacity="0"/>
	<path id="Vector" d="M40 57.93C38.18 57.93 36.38 57.39 34.96 56.35L27.8 51C25.9 49.58 24.41 46.61 24.41 44.26L24.41 31.86C24.41 29.29 26.3 26.56 28.71 25.66L37.03 22.54C38.68 21.93 41.28 21.93 42.93 22.54L51.25 25.66C53.66 26.56 55.55 29.29 55.55 31.86L55.55 44.25C55.55 46.61 54.06 49.56 52.16 50.98L45 56.33C43.61 57.39 41.81 57.93 40 57.93ZM37.91 24.89L29.6 28.01C28.18 28.54 26.93 30.35 26.93 31.88L26.93 44.26C26.93 45.85 28.05 48.06 29.3 49L36.46 54.35C38.38 55.78 41.61 55.78 43.55 54.35L50.71 49C51.98 48.04 53.08 45.85 53.08 44.26L53.08 31.86C53.08 30.35 51.83 28.54 50.41 28L42.1 24.88C40.96 24.48 39.03 24.48 37.91 24.89Z" fill="#FAFAFA" fill-opacity="1.000000" fill-rule="nonzero"/>
	<path id="Vector" d="M34.96 56.35L27.8 51C25.9 49.58 24.41 46.61 24.41 44.26L24.41 31.86C24.41 29.29 26.3 26.56 28.71 25.66L37.03 22.54C38.68 21.93 41.28 21.93 42.93 22.54L51.25 25.66C53.66 26.56 55.55 29.29 55.55 31.86L55.55 44.25C55.55 46.61 54.06 49.56 52.16 50.98L45 56.33C43.61 57.39 41.81 57.93 40 57.93C38.18 57.93 36.38 57.39 34.96 56.35ZM29.6 28.01C28.18 28.54 26.93 30.35 26.93 31.88L26.93 44.26C26.93 45.85 28.05 48.06 29.3 49L36.46 54.35C38.38 55.78 41.61 55.78 43.55 54.35L50.71 49C51.98 48.04 53.08 45.85 53.08 44.26L53.08 31.86C53.08 30.35 51.83 28.54 50.41 28L42.1 24.88C40.96 24.48 39.03 24.48 37.91 24.89L29.6 28.01Z" stroke="#FAFAFA" stroke-opacity="1.000000" stroke-width="1.000000"/>
	<path id="Vector" d="M37.76 43.71C37.45 43.71 37.13 43.6 36.88 43.35L34.2 40.66C33.71 40.18 33.71 39.38 34.2 38.89C34.68 38.41 35.48 38.41 35.96 38.89L37.76 40.7L44.05 34.41C44.53 33.93 45.33 33.93 45.81 34.41C46.3 34.89 46.3 35.7 45.81 36.18L38.65 43.35C38.4 43.6 38.08 43.71 37.76 43.71Z" fill="#FAFAFA" fill-opacity="1.000000" fill-rule="nonzero"/>
	<path id="Vector" d="M36.88 43.35L34.2 40.66C33.71 40.18 33.71 39.38 34.2 38.89C34.68 38.41 35.48 38.41 35.96 38.89L37.76 40.7L44.05 34.41C44.53 33.93 45.33 33.93 45.81 34.41C46.3 34.89 46.3 35.7 45.81 36.18L38.65 43.35C38.4 43.6 38.08 43.71 37.76 43.71C37.45 43.71 37.13 43.6 36.88 43.35Z" stroke="#FAFAFA" stroke-opacity="1.000000" stroke-width="1.000000"/>
	<g opacity="0.000000">
		<path id="Vector" d="M60 20L60 60L20 60L20 20L60 20Z" stroke="#FAFAFA" stroke-opacity="1.000000" stroke-width="1.000000"/>
	</g>
</svg>
